<svg width="26" height="20" viewBox="0 0 26 20" fill="none" xmlns="http://www.w3.org/2000/svg">
<path d="M21.0233 13.3276V14.59C21.0233 15.1121 20.5993 15.5393 20.0596 15.5393H5.93241C5.39276 15.5393 4.96875 15.1121 4.96875 14.59V13.3276C4.96875 12.8055 5.4024 12.3783 5.93241 12.3783C7.17552 12.3783 8.17773 11.3911 8.17773 10.1666V6.27466C8.17773 3.56931 10.423 1.20569 13.1695 1.30062C14.4319 1.34808 15.569 1.87016 16.4074 2.68651C17.2746 3.55033 17.8143 4.73688 17.8143 6.04684V10.1666C17.8143 11.3911 18.8165 12.3783 20.0596 12.3783C20.5896 12.3783 21.0233 12.8055 21.0233 13.3276Z" stroke="#221713" stroke-width="1.5" stroke-miterlimit="10" stroke-linecap="round"/>
<path d="M11.3906 15.5391H14.6092V17.1148C14.6092 17.9881 13.8865 18.7 12.9999 18.7C12.1134 18.7 11.3906 17.9881 11.3906 17.1148V15.5391Z" stroke="#221713" stroke-width="1.5" stroke-miterlimit="10" stroke-linecap="round"/>
</svg>
