<svg width="20" height="20" viewBox="0 0 20 20" fill="none" xmlns="http://www.w3.org/2000/svg">
<g clip-path="url(#clip0_17206_49595)">
<path d="M14.5411 16.5298C15.5411 16.5298 16.2811 15.5598 15.9811 14.6098C15.1711 12.1098 12.8311 10.2998 10.0611 10.2998C7.29108 10.2998 4.95108 12.1098 4.14108 14.6098C3.83108 15.5598 4.58108 16.5298 5.58108 16.5298H14.5411Z" stroke="#726C5C" stroke-width="1.5" stroke-miterlimit="10"/>
<path d="M10.0631 10.3098C11.7807 10.3098 13.1731 8.91745 13.1731 7.19984C13.1731 5.48224 11.7807 4.08984 10.0631 4.08984C8.34552 4.08984 6.95312 5.48224 6.95312 7.19984C6.95312 8.91745 8.34552 10.3098 10.0631 10.3098Z" stroke="#726C5C" stroke-width="1.5" stroke-miterlimit="10"/>
<path d="M6.89947 7.74997C6.33947 7.40997 5.67947 7.21997 4.96947 7.21997C3.29947 7.21997 1.88947 8.30997 1.39947 9.81997C1.21947 10.39 1.66947 10.97 2.26947 10.97H7.26947" stroke="#726C5C" stroke-width="1.5" stroke-miterlimit="10"/>
<path d="M4.96594 7.21996C6.00423 7.21996 6.84594 6.37826 6.84594 5.33996C6.84594 4.30167 6.00423 3.45996 4.96594 3.45996C3.92764 3.45996 3.08594 4.30167 3.08594 5.33996C3.08594 6.37826 3.92764 7.21996 4.96594 7.21996Z" stroke="#726C5C" stroke-width="1.5" stroke-miterlimit="10"/>
<path d="M12.9531 10.97H17.7331C18.3331 10.97 18.7831 10.39 18.6031 9.81997C18.1131 8.30997 16.7031 7.21997 15.0331 7.21997C14.3731 7.21997 13.7531 7.38997 13.2131 7.68997" stroke="#726C5C" stroke-width="1.5" stroke-miterlimit="10"/>
<path d="M15.0363 7.21996C16.0745 7.21996 16.9163 6.37826 16.9163 5.33996C16.9163 4.30167 16.0745 3.45996 15.0363 3.45996C13.998 3.45996 13.1562 4.30167 13.1562 5.33996C13.1562 6.37826 13.998 7.21996 15.0363 7.21996Z" stroke="#726C5C" stroke-width="1.5" stroke-miterlimit="10"/>
</g>
<defs>
<clipPath id="clip0_17206_49595">
<rect width="20" height="20" fill="white"/>
</clipPath>
</defs>
</svg>
